<svg version="1.1" id="Layer_1" xmlns="http://www.w3.org/2000/svg" xmlns:xlink="http://www.w3.org/1999/xlink" x="0px" y="0px" viewBox="0 0 500 500" style="width: 188px;" xml:space="preserve" data-imageid="data-analysis-59" imageName="Data Analysis" class="illustrations_image">
<style type="text/css">
	.st0_data-analysis-59{fill:#77CC58;}
	.st1_data-analysis-59{opacity:0.32;fill:url(#SVGID_1_);enable-background:new    ;}
	.st2_data-analysis-59{opacity:0.32;fill:url(#SVGID_00000065757408575371723400000008024478271841955226_);enable-background:new    ;}
	.st3_data-analysis-59{opacity:0.32;fill:url(#SVGID_00000060746944583330698580000016202798543316482432_);enable-background:new    ;}
	.st4_data-analysis-59{opacity:0.32;fill:url(#SVGID_00000065068600664714975450000007108899581035581069_);enable-background:new    ;}
	.st5_data-analysis-59{opacity:0.32;fill:url(#SVGID_00000040570513541551346320000010648635707947873688_);enable-background:new    ;}
	.st6_data-analysis-59{fill:#68E1FD;}
	.st7_data-analysis-59{opacity:0.2;enable-background:new    ;}
	.st8_data-analysis-59{fill:#E75A59;}
	.st9_data-analysis-59{fill:#EDAF24;}
	.st10_data-analysis-59{opacity:0.49;fill:#FFFFFF;enable-background:new    ;}
	.st11_data-analysis-59{fill:#963626;}
	.st12_data-analysis-59{fill:#FFC388;}
	.st13_data-analysis-59{fill:#FFB5A4;}
	.st14_data-analysis-59{fill:#FFFFFF;}
	.st15_data-analysis-59{fill:#E6E6E6;}
</style>
<path id="Base_data-analysis-59" class="st0_data-analysis-59" d="M29.5,298.2c3.1-1.8,217.3,126.8,219.3,125.7l228.7-131.1L256.3,167.3L29.5,298.2z"/>
<g id="Shadow_data-analysis-59">
	
		<linearGradient id="SVGID_1_-data-analysis-59" gradientUnits="userSpaceOnUse" x1="255.1475" y1="1188.9965" x2="266.8075" y2="1211.3965" gradientTransform="matrix(1 0 0 -1 0 1434.0701)">
		<stop offset="0" style="stop-color:#963626;stop-opacity:0"/>
		<stop offset="0.98" style="stop-color:#000000"/>
	</linearGradient>
	<path class="st1_data-analysis-59" d="M293.4,269c8-4.3,28.1-15.8,36.1-20.2l-97.6-55.5l-36.1,19.3C204.2,217,281.8,261.9,293.4,269z"/>
	
		<linearGradient id="SVGID_00000008119113116132526130000008495506732502623367_-data-analysis-59" gradientUnits="userSpaceOnUse" x1="155.4348" y1="1147.015" x2="171.6248" y2="1169.6251" gradientTransform="matrix(1 0 0 -1 0 1434.0701)">
		<stop offset="0" style="stop-color:#963626;stop-opacity:0"/>
		<stop offset="0.98" style="stop-color:#000000"/>
	</linearGradient>
	<path style="opacity:0.32;fill:url(#SVGID_00000008119113116132526130000008495506732502623367_);enable-background:new    ;" d="&#10;&#9;&#9;M169.6,297.3c8-4.3,36-22,44-26.4l-56.4-20.2l-36,19.2C129.6,274.3,158.1,290.1,169.6,297.3L169.6,297.3z"/>
	
		<linearGradient id="SVGID_00000109723047523833250200000006347769099072665237_-data-analysis-59" gradientUnits="userSpaceOnUse" x1="78.2904" y1="1111.2426" x2="94.4704" y2="1133.8525" gradientTransform="matrix(1 0 0 -1 0 1434.0701)">
		<stop offset="0" style="stop-color:#963626;stop-opacity:0"/>
		<stop offset="0.98" style="stop-color:#000000"/>
	</linearGradient>
	<path style="opacity:0.32;fill:url(#SVGID_00000109723047523833250200000006347769099072665237_);enable-background:new    ;" d="&#10;&#9;&#9;M92.4,333.1c8-4.3,36-22,44-26.4l-56.4-20.3L44,305.7C52.4,310.1,80.9,325.9,92.4,333.1L92.4,333.1z"/>
	
		<linearGradient id="SVGID_00000054984923314669318230000005907922901255370918_-data-analysis-59" gradientUnits="userSpaceOnUse" x1="206.7484" y1="1039.881" x2="217.4484" y2="1058.2109" gradientTransform="matrix(1 0 0 -1 0 1434.0701)">
		<stop offset="0" style="stop-color:#963626;stop-opacity:0"/>
		<stop offset="0.98" style="stop-color:#000000"/>
	</linearGradient>
	<path style="opacity:0.32;fill:url(#SVGID_00000054984923314669318230000005907922901255370918_);enable-background:new    ;" d="&#10;&#9;&#9;M227.2,409.6c13.1-7,59-36.1,72-43.3l-92.3-33.2l-59.1,31.6C161.5,371.9,208.2,397.8,227.2,409.6L227.2,409.6z"/>
	
		<linearGradient id="SVGID_00000146478650620422790420000017639018207130689929_-data-analysis-59" gradientUnits="userSpaceOnUse" x1="376.5158" y1="1125.6859" x2="389.2558" y2="1143.4858" gradientTransform="matrix(1 0 0 -1 0 1434.0701)">
		<stop offset="0" style="stop-color:#FFFFFF;stop-opacity:0"/>
		<stop offset="0.98" style="stop-color:#000000"/>
	</linearGradient>
	<path style="opacity:0.32;fill:url(#SVGID_00000146478650620422790420000017639018207130689929_);enable-background:new    ;" d="&#10;&#9;&#9;M387.9,283.6c-7,4.3-23.8,11.4-30.5,15.4c6.8,3.7,19.2,13.5,23.8,16.3c4.5-2.4,26.8-7.9,33-25.5L387.9,283.6z"/>
</g>
<g id="Pencil_case_data-analysis-59">
	<path class="st6_data-analysis-59 targetColor" d="M147.8,191.8v72.5c0,0,69.7,3.9,69.7,0v-72.5" style="fill: rgb(104, 225, 253);"/>
	<ellipse class="st6_data-analysis-59 targetColor" cx="182.6" cy="263.7" rx="34.9" ry="15.9" style="fill: rgb(104, 225, 253);"/>
	<ellipse class="st6_data-analysis-59 targetColor" cx="182.6" cy="191.8" rx="34.9" ry="15.9" style="fill: rgb(104, 225, 253);"/>
	<ellipse class="st7_data-analysis-59" cx="182.6" cy="191.8" rx="34.9" ry="15.9"/>
	<path class="st8_data-analysis-59" d="M160.9,204.2l0.2,0.1c1.4,0.5,2.7,0.9,4.1,1.2l-9.4-79.4c0,0-2-1.1-4.9,0.9l9.7,76.9L160.9,204.2z"/>
	<path class="st8_data-analysis-59" d="M171.7,206.6l3-74.5c0,0-1.8-1.4-4.9,0.1l-2.5,73.8C168.8,206.3,170.3,206.5,171.7,206.6L171.7,206.6z"/>
	<path class="st9_data-analysis-59" d="M182.6,207.7l9.6-77.7l19.4,10.2l-7.9,65.3C196.9,207.5,189.8,208.3,182.6,207.7L182.6,207.7z"/>
</g>
<g id="Bar_Chart_data-analysis-59">
	<polyline class="st8_data-analysis-59" points="221.7,90.4 221.7,201.4 253.6,219.7 289.7,198.4 289.7,87.3 &#9;"/>
	<polygon class="st8_data-analysis-59" points="221.7,90.4 258.8,69.3 289.7,87.3 253.6,108.7 &#9;"/>
	<polygon class="st7_data-analysis-59" points="253.6,108.7 253.6,219.7 289.7,198.4 289.7,87.3 &#9;"/>
	<polygon class="st6_data-analysis-59 targetColor" points="290.7,110.9 253.6,132 253.6,220 285.6,238.2 321.7,216.9 321.7,129 &#9;" style="fill: rgb(104, 225, 253);"/>
	<polygon class="st10_data-analysis-59" points="253.6,132 290.7,110.9 321.7,129 285.6,150.3 &#9;"/>
	<polygon class="st7_data-analysis-59" points="285.6,150.3 285.6,238.2 321.7,216.9 321.7,129 &#9;"/>
	<polyline class="st9_data-analysis-59" points="285.6,197.8 285.6,238.8 317.5,257 353.6,235.7 353.6,194.8 &#9;"/>
	<polygon class="st9_data-analysis-59" points="285.6,197.8 322.7,176.7 353.6,194.8 317.5,216.1 &#9;"/>
	<polygon class="st7_data-analysis-59" points="317.5,216.1 317.5,257 353.6,235.7 353.6,194.8 &#9;"/>
	<polygon class="st10_data-analysis-59" points="221.7,90.4 258.8,69.3 289.7,87.3 253.6,108.7 &#9;"/>
	<polygon class="st10_data-analysis-59" points="285.6,197.8 322.7,176.7 353.6,194.8 317.5,216.1 &#9;"/>
</g>
<g id="Character_data-analysis-59">
	<path d="M405.3,277.4c0,0,0.2,8.6-0.9,9.1s-7.5,9-8,10.3c-1.5,4.4,6.7,6.4,9.6,4.9s7.8-9.8,8.2-11.9s2.8-15,2.8-15"/>
	<path d="M393,269.9c0,0,0.2,8.6-0.9,9.1s-11.6,6.8-12.2,8.1c-1.7,4.1,6.6,5.6,9.5,4.2s12.1-6.9,12.5-9s2.8-15,2.8-15"/>
	<path class="st11_data-analysis-59" d="M426.1,187c0,0,6.2,9.7,5.3,18.4s-9.5,77.7-15.1,77s-8.9,0.1-11.8-7.2c0,0-9.4,2.1-12.4-5.3&#10;&#9;&#9;c0,0,2.3-64.8,7.6-74.9S426.1,187,426.1,187z"/>
	<path class="st12_data-analysis-59" d="M346.2,161.6c1.6-0.4,3.1-0.7,4.7-0.8c-1.6,0-3.2,0.2-4.8,0.5c-1.7,0.3-1.9-2.3-0.2-2.6l0.8-0.1&#10;&#9;&#9;c-0.5-0.6-0.4-1.5,0.2-2c0,0,0,0,0,0c0.2-0.1,0.4-0.2,0.6-0.2c3.6-0.5,7.3-0.1,10.9,1c-0.1-1.3-0.1-2.7,0.1-4&#10;&#9;&#9;c0-0.2,0.1-0.4,0.3-0.6c0.4-0.7,1.2-0.9,1.9-0.6c0.3,0.2,0.6,0.5,0.7,0.9c0.4,2.1,0.2,4.2,0.6,6.3c0.1,0.4,0.2,0.7,0.3,1.1&#10;&#9;&#9;c1.6,1.7,3.2,3.4,4.8,5.1c1.1,1.2-0.9,2.7-2.1,1.6c-0.2,0.3-0.4,0.5-0.7,0.6l0.2,0.2c0.3,0.3,0.3,0.8,0.1,1.2l0.2,0.2&#10;&#9;&#9;c1.2,1.2-0.5,3.2-1.7,2l-0.4-0.4c-0.4,0.3-1.1,0.2-1.4-0.2c0,0,0-0.1-0.1-0.1c0,0-0.1-0.1-0.1-0.1c-1-1.7-2.4-3-4.1-4.1l-0.5-0.4&#10;&#9;&#9;c-1.4-0.5-2.9-0.8-4.4-0.9c-1.1,0.3-2.2,0.6-3.3,1c-0.7,0.2-1.4-0.2-1.6-0.8c-0.2-0.6,0.1-1.3,0.6-1.6l-0.7,0.1&#10;&#9;&#9;C345.5,164.5,344.6,162,346.2,161.6z"/>
	<path d="M346.5,158.2c1.7-0.2,3.5-0.3,5.2-0.2c0.4,0,0.5,0.7,0,0.7c-1.7-0.1-3.5,0-5.2,0.2C346.1,158.9,346.1,158.2,346.5,158.2z"/>
	<path d="M346.3,160.9c1.9-0.3,3.7-0.4,5.6-0.4c0.2,0,0.4,0.1,0.4,0.3c0,0.2-0.1,0.4-0.3,0.4c0,0-0.1,0-0.1,0&#10;&#9;&#9;c-1.9,0-3.8,0.1-5.6,0.4C345.9,161.6,345.9,160.9,346.3,160.9z"/>
	<path d="M353.7,161.7c2.1-0.6,4.3-0.2,6,1.1c0.4,0.2-0.1,0.7-0.4,0.5c-1.5-1.2-3.5-1.5-5.4-1c-0.2,0.1-0.4,0-0.5-0.2&#10;&#9;&#9;C353.3,162.1,353.4,161.9,353.7,161.7C353.6,161.8,353.6,161.8,353.7,161.7L353.7,161.7z"/>
	<path d="M352.6,161.6c0.2-1.5,1.1-2.9,2.5-3.6c0.4-0.2,0.6,0.5,0.2,0.6c-1.2,0.6-2,1.8-2.1,3.1c-0.1,0.2-0.3,0.3-0.4,0.2&#10;&#9;&#9;C352.7,161.9,352.6,161.8,352.6,161.6L352.6,161.6z"/>
	<path d="M347.2,163.3c1.4-0.6,2.8-1,4.3-1.2c0.2,0,0.4,0.1,0.4,0.3c0,0.2-0.1,0.4-0.3,0.4c0,0-0.1,0-0.1,0&#10;&#9;&#9;c-1.4,0.2-2.8,0.5-4.1,1.1C347.1,164.1,346.8,163.5,347.2,163.3L347.2,163.3z"/>
	<path class="st9_data-analysis-59" d="M375.9,158.1l-3.1,18.9c0,0,2.3,7,7.4,7.9s8.8-22.6,8.8-22.6"/>
	<path class="st9_data-analysis-59" d="M390.8,148.1c3.9,0.3,7.7,1.2,11.5,2.4c5,1.6,26.6,33.3,23.8,36.4s-16.2,9.5-24.3,7.7s-26.8-33-25.9-36.5&#10;&#9;&#9;c2-8.1,8.3-8.2,8.3-8.2"/>
	<path class="st12_data-analysis-59" d="M376.5,139.7c0,0-1.4,11.9,2.8,14s9-2.3,10.4-4.9s2.8-15.7-5.2-14.8S376.4,139.7,376.5,139.7L376.5,139.7z"/>
	<path d="M376.2,131.8c3.3-1.1,7.1-3.6,13,0.2s7.6,14.6,0.6,17.2l-1.3-3.9c0.6-0.8,0.9-1.8,0.8-2.8c-0.1-1.3-1.1-2.2-2.4-2.2&#10;&#9;&#9;c0,0,0,0,0,0c-0.1,0-0.2,0-0.3,0c-0.7-0.5-1.3-1.3-1.7-2.1c-1.2-2.4-2.5-1.2-4.2,0.9s-5.4,2.7-7.3,1.4S372,133.2,376.2,131.8&#10;&#9;&#9;L376.2,131.8z"/>
	<path class="st9_data-analysis-59" d="M363.8,160.9c4.3,3.1,8.5,6.4,12.4,9.9l6.1,13.1c0,0-3.6,5-10.2,1.5c-4.7-2.5-12.1-11.6-15.7-17.1&#10;&#9;&#9;C357.8,164.9,360.4,162.2,363.8,160.9z"/>
	<path d="M408.5,207c0.1-0.9,1.5-0.9,1.4,0l-6.4,68c-0.1,0.9-1.5,0.9-1.4,0L408.5,207z"/>
	<path class="st9_data-analysis-59" d="M386.9,182.9c0,0,7-5.8,7-8.4s-3.6-21.2,2.4-22.6s10.9,12.6,12.6,20.9s-18,23.6-18,23.6"/>
	<path class="st11_data-analysis-59" d="M361,117.1c-4.1-2.9-10.2-2.5-14.3,0.4l12.5,141.1l14.2-1.3L361,117.1L361,117.1z"/>
	
		<ellipse transform="matrix(0.996 -8.963770e-02 8.963770e-02 0.996 -21.6808 34.0394)" class="st11_data-analysis-59" cx="368.1" cy="258.4" rx="7.1" ry="3"/>
	<path class="st13_data-analysis-59" d="M373.5,258.2c0,0-1.6-3.4-7.3-2.7c-5.7,0.8-7,3.3-7,3.3l8.6,26.8L373.5,258.2L373.5,258.2z"/>
	<path class="st11_data-analysis-59" d="M367.9,285.6l2.6-12.7c-2.1-1.3-4.8-1-6.5,0.7L367.9,285.6L367.9,285.6z"/>
	<path class="st12_data-analysis-59" d="M374.6,197.4l-6.3,0.7c0,0-5.1-1.1-6.3,0.9c-0.3,0.5,5.1,1.3,5.1,1.3s-7.8,2-7.3,3.6s5.6,4.5,6.6,4.8&#10;&#9;&#9;s10.8-7.5,10.8-7.5"/>
	<path class="st9_data-analysis-59" d="M371.5,196.8c2.5-3.6,7.7-7,12-11.1c5.8-4.8,11.8-10.9,16.5-4.3c5.2,7.3-15.2,20.9-21.1,24.7&#10;&#9;&#9;C375.5,203.9,372.9,200.6,371.5,196.8L371.5,196.8z"/>
</g>
<g id="Pie_data-analysis-59">
	<path class="st8_data-analysis-59" d="M115.1,307.5v7.7c5.9-0.6,11.6-2.3,16.8-5.1c7.4-4.4,9.1-8.2,9.6-11.8c0.1-0.6,0.1-9.4,0.1-9.4"/>
	<path class="st7_data-analysis-59" d="M115.1,307.5v7.7c5.9-0.6,11.6-2.3,16.8-5.1c7.4-4.4,9.1-8.2,9.6-11.8c0.1-0.6,0.1-9.4,0.1-9.4"/>
	<polyline class="st6_data-analysis-59 targetColor" points="75.2,261.6 75.2,291.4 109.4,292.7 129.1,277.2 129.1,247.2 &#9;" style="fill: rgb(104, 225, 253);"/>
	<polyline class="st7_data-analysis-59" points="75.2,262.2 75.2,292 109.4,293.3 129.1,277.8 129.1,247.8 &#9;"/>
	<polygon class="st6_data-analysis-59 targetColor" points="109.7,261.3 109.1,288.9 129.1,274 129.1,247.2 &#9;" style="fill: rgb(104, 225, 253);"/>
	<polygon class="st7_data-analysis-59" points="109.7,261.9 109.1,289.5 129.1,274.6 129.1,247.8 &#9;"/>
	<path class="st8_data-analysis-59" d="M109.1,288.9l20-15c0,0,11.9,4,12.6,15s-15.7,17.7-26.6,18.6L109.1,288.9L109.1,288.9z"/>
	<path class="st6_data-analysis-59 targetColor" d="M129.1,247.2c-6.3-2.4-12.9-3.6-19.6-3.6c-17.9,0-32.6,7.9-34.3,18l34.5-0.3L129.1,247.2L129.1,247.2z" style="fill: rgb(104, 225, 253);"/>
	<path class="st9_data-analysis-59" d="M115.7,292.9v22.3c-9.5,1.2-19.2-0.2-27.9-4.1c-9.9-4.6-11.7-10-12.6-14v-23.7"/>
	<path class="st7_data-analysis-59" d="M115.7,292.9v22.3c-9.5,1.2-19.2-0.2-27.9-4.1c-9.9-4.6-11.7-10-12.6-14v-23.7"/>
	<path class="st9_data-analysis-59" d="M75.2,273.4h34.2l6.4,19.5c0,0-17.7,2.4-30.8-5.6C73.5,280.3,75.2,273.4,75.2,273.4z"/>
</g>
<g id="Smartphone_data-analysis-59">
	<path class="st8_data-analysis-59" d="M168,347.3l130.5-74.9c2.8-1.6,6.3-1.6,9.2,0l69.7,40.8c2.6,1.5,3.4,4.8,1.9,7.4c-0.5,0.8-1.1,1.5-1.9,1.9&#10;&#9;&#9;l-129.2,74.7c-3.8,2.2-8.5,2.1-12.2-0.1l-68.1-40.6c-2.5-1.5-3.3-4.9-1.8-7.4c0,0,0,0,0,0C166.6,348.4,167.2,347.8,168,347.3&#10;&#9;&#9;L168,347.3z"/>
	<path class="st13_data-analysis-59" d="M168,341.4l130.5-74.9c2.8-1.6,6.3-1.6,9.2,0l69.7,40.8c2.6,1.5,3.4,4.8,1.9,7.4c-0.5,0.8-1.1,1.5-1.9,1.9&#10;&#9;&#9;l-129.2,74.7c-3.8,2.2-8.5,2.1-12.2-0.1l-68.1-40.6c-2.5-1.5-3.3-4.9-1.8-7.4c0,0,0,0,0,0C166.6,342.5,167.2,341.9,168,341.4&#10;&#9;&#9;L168,341.4z"/>
	<path class="st14_data-analysis-59" d="M295.3,275.9c0.7,0.2,66.7,38.7,66.7,38.7l-110.2,64.5l-66.6-38.4L295.3,275.9L295.3,275.9z"/>
	<path class="st8_data-analysis-59" d="M223.4,373c0.8-0.5,1.1-1.5,0.6-2.3l-0.1-0.1c-0.9-1-2-1.8-3.2-2.4c-1.1-0.7-2.3-1.3-3.4-2l-8.9-5.1l-7.3-4.2&#10;&#9;&#9;c-1-0.6-2.1-0.7-3.2-0.4c-0.8,0.3-1.4,0.7-1.9,1.4c-0.4,0.7-0.2,1.7,0.5,2.1c0.1,0,0.1,0.1,0.2,0.1l13.4,7.8l5.8,3.4l3.4,2&#10;&#9;&#9;c1,0.6,2.3,0.7,3.4,0.3C223,373.4,223.2,373.3,223.4,373L223.4,373z"/>
	<ellipse class="st8_data-analysis-59" cx="190.3" cy="352.9" rx="2.3" ry="1.9"/>
	<path class="st15_data-analysis-59" d="M207.6,338.8l47.2,26.9c0.8,0.4,1.7,0.1,2.1-0.7c0.4-0.7,0.1-1.6-0.5-2l-47.2-26.9c-0.8-0.4-1.7-0.1-2.1,0.7&#10;&#9;&#9;C206.7,337.5,207,338.3,207.6,338.8L207.6,338.8z"/>
	<path class="st15_data-analysis-59" d="M216.3,334.4l47.2,26.9c0.8,0.4,1.7,0.2,2.2-0.6s0.2-1.7-0.6-2.2l-47.2-26.9c-0.8-0.4-1.7-0.1-2.1,0.7&#10;&#9;&#9;C215.4,333.1,215.6,334,216.3,334.4L216.3,334.4L216.3,334.4z"/>
	<path class="st15_data-analysis-59" d="M224.8,329.3l47.2,26.9c0.8,0.4,1.7,0.1,2.1-0.7c0.4-0.7,0.1-1.6-0.5-2l-47.2-26.9c-0.8-0.4-1.7-0.1-2.1,0.7&#10;&#9;&#9;C223.9,328,224.1,328.9,224.8,329.3L224.8,329.3z"/>
	<path class="st15_data-analysis-59" d="M273.9,297.8l47.2,26.9c0.8,0.4,1.7,0.1,2.1-0.7c0.4-0.7,0.1-1.6-0.5-2l-47.2-26.9c-0.8-0.4-1.7-0.1-2.1,0.7&#10;&#9;&#9;C273,296.5,273.2,297.4,273.9,297.8z"/>
	<path class="st15_data-analysis-59" d="M283.9,293.7l47.2,26.9c0.8,0.4,1.7,0.1,2.1-0.7c0.4-0.7,0.1-1.6-0.5-2L285.5,291c-0.8-0.4-1.7-0.1-2.1,0.7&#10;&#9;&#9;C283,292.4,283.3,293.3,283.9,293.7L283.9,293.7z"/>
	<path class="st15_data-analysis-59" d="M291.7,288.4l47.3,26.9c0.8,0.4,1.7,0.1,2.1-0.7c0.4-0.7,0.1-1.6-0.5-2l-47.2-26.9c-0.8-0.4-1.7-0.1-2.1,0.7&#10;&#9;&#9;C290.9,287.1,291.1,287.9,291.7,288.4L291.7,288.4z"/>
	<path class="st15_data-analysis-59" d="M239.6,319.4c0.7,0.4,45,26,45,26l23.2-13.8l-44.1-25.9L239.6,319.4L239.6,319.4z"/>
	<path class="st15_data-analysis-59" d="M284.6,345.8l-0.2-0.1c-15.3-8.9-44.4-25.7-45-26L238,319h1.5l24.2-13.7l44.8,26.3L284.6,345.8z M240.3,319.4&#10;&#9;&#9;c5.1,2.9,40.9,23.7,44.2,25.6l22.4-13.3l-43.4-25.4L240.3,319.4z"/>
</g>
</svg>